# xmcd
#
# Track frame offsets:
#	150
#	19205
#	36383
#	50972
#	72668
#	84733
#	106518
#	123490
#	155121
#
# Disc length: 2340 seconds
#
# Revision: 1
# Processed by: cddbd v1.5PL3 Copyright (c) Steve Scherf et al.
# Submitted via: audiograbber 1.81.01
#
DISCID=82092209
DTITLE=Svet and Al Boogie Band - Happy With The Boogie
DYEAR=2004
DGENRE=Blues
TTITLE0=Everythung's Gonna Be Allright
TTITLE1=For U My Love
TTITLE2=How Long Blues
TTITLE3=Guitar In My Hand
TTITLE4=Love My Baby
TTITLE5=Shake A Hand
TTITLE6=Let Me Play With Your Poodle
TTITLE7=Every Day I Have The Blues
TTITLE8=Kindhearted Woman
EXTD=
EXTT0=
EXTT1=
EXTT2=
EXTT3=
EXTT4=
EXTT5=
EXTT6=
EXTT7=
EXTT8=
PLAYORDER=
